Coordinates
version=1
nRows=27
nColumns=33
inDegrees=yes

Units are S.I. units (second, meters, Newtons, ...)
Angles are in degrees.

endheader
time	ground_thorax_rot_x	ground_thorax_rot_y	ground_thorax_rot_z	ground_thorax_tx	ground_thorax_ty	ground_thorax_tz	clav_prot_r	clav_elev_r	scapula_abduction_r	scapula_elevation_r	scapula_upward_rot_r	scapula_winging_r	shoulder_elv_r	plane_of_elev_r	axial_rot_r	elbow_flexion_r	pro_sup_r	wrist_flex_r	wrist_dev_r	clav_prot_l	clav_elev_l	scapula_abduction_l	scapula_elevation_l	scapula_upward_rot_l	scapula_winging_l	shoulder_elv_l	plane_of_elev_l	axial_rot_l	elbow_flexion_l	pro_sup_l	wrist_flex_l	wrist_dev_l	
3.2400	-3.660433	4.879539	10.279231	-0.106311	1.026568	0.012215	16.938856	-15.419477	41.556901	-15.099165	22.189273	-10.215283	-3.346673	-56.000070	121.555943	-32.994752	-141.060845	-2.871185	4.412382	25.349322	-10.125663	-38.113153	-6.972447	-25.523408	13.028808	55.588324	1.134951	4.514670	15.605401	14.981585	22.756634	-4.318169	
3.2500	-3.646692	4.772772	10.193212	-0.105774	1.026680	0.012150	16.933639	-15.245220	41.608182	-14.966778	22.262460	-10.347351	-3.430629	-55.931187	121.620807	-33.031309	-141.254720	-2.713938	4.391593	25.376962	-10.315866	-38.140323	-6.745910	-25.383023	13.012054	55.551857	1.321422	4.596907	14.858799	15.019399	22.519537	-4.067859	
3.2600	-3.648436	4.619955	10.120091	-0.105258	1.026737	0.012101	16.922678	-15.078419	41.647333	-14.840077	22.331278	-10.468503	-3.548396	-55.859610	121.693446	-33.118214	-141.480973	-2.528607	4.372222	25.392635	-10.461553	-38.151420	-6.581752	-25.295312	12.992134	55.533374	1.448553	4.729563	14.282402	15.044170	22.269211	-3.876354	
3.2700	-3.614543	4.483664	10.046624	-0.104853	1.026781	0.012050	16.904480	-14.881095	41.670799	-14.684646	22.390344	-10.604047	-3.668267	-55.838966	121.744681	-33.240479	-141.784823	-2.294576	4.343584	25.388604	-10.598495	-38.130593	-6.432305	-25.220604	12.953405	55.499557	1.595165	4.946751	13.754214	15.062805	21.958579	-3.700362	
3.2800	-3.558331	4.331419	9.991051	-0.104545	1.026785	0.012009	16.882930	-14.668233	41.674582	-14.509823	22.426109	-10.743539	-3.822381	-55.868470	121.780571	-33.439743	-142.222204	-1.970484	4.311757	25.356370	-10.708968	-38.064916	-6.327421	-25.190374	12.889888	55.464032	1.718133	5.273245	13.351952	15.078459	21.579436	-3.581434	
3.2900	-3.481020	4.167728	9.947369	-0.104339	1.026743	0.011983	16.862129	-14.445865	41.649884	-14.314712	22.416406	-10.882191	-4.006030	-55.941767	121.787367	-33.748398	-142.822386	-1.548791	4.275393	25.289746	-10.788744	-37.944892	-6.268390	-25.198957	12.797157	55.434481	1.806382	5.689970	13.099994	15.091511	21.148534	-3.532962	
3.3000	-3.388929	3.988898	9.927136	-0.104227	1.026650	0.011974	16.843826	-14.230466	41.581262	-14.106618	22.335502	-11.005138	-4.225141	-56.054725	121.761362	-34.196329	-143.595705	-1.030017	4.239780	25.184817	-10.834446	-37.764428	-6.259505	-25.249016	12.672269	55.412759	1.835358	6.162869	13.024971	15.104123	20.700366	-3.570953	
3.3100	-3.298418	3.800514	9.922902	-0.104210	1.026525	0.011964	16.835683	-14.064031	41.462257	-13.914949	22.159472	-11.085408	-4.459442	-56.205443	121.695391	-34.791997	-144.615337	-0.423518	4.218949	25.035371	-10.843906	-37.514148	-6.295488	-25.324459	12.511494	55.415775	1.778894	6.594473	13.150271	15.126915	20.293466	-3.718481	
3.3200	-3.202006	3.611647	9.937132	-0.104273	1.026363	0.011951	16.824958	-13.933609	41.278441	-13.730393	21.894728	-11.123134	-4.714163	-56.394862	121.605425	-35.542349	-145.831332	0.249226	4.214453	24.846159	-10.823132	-37.201210	-6.369727	-25.422252	12.318069	55.431758	1.650531	6.981759	13.456144	15.155611	19.928603	-3.952313	
3.3300	-3.110866	3.434746	9.957114	-0.104418	1.026168	0.011929	16.802930	-13.851388	41.013531	-13.562343	21.537586	-11.102746	-4.969596	-56.604794	121.494885	-36.447064	-147.156761	0.927645	4.233116	24.627772	-10.770267	-36.843692	-6.479601	-25.534573	12.104421	55.471305	1.445871	7.262322	13.962789	15.184882	19.646112	-4.256973	
3.3400	-3.025443	3.275022	9.993223	-0.104640	1.025927	0.011902	16.751001	-13.800584	40.645871	-13.398850	21.096709	-11.022454	-5.235309	-56.823297	121.380274	-37.504903	-148.416045	1.553162	4.276099	24.397701	-10.685554	-36.469937	-6.630793	-25.676097	11.886781	55.524234	1.172566	7.449194	14.680693	15.200428	19.449103	-4.599184	
3.3500	-2.959125	3.140733	10.044227	-0.104944	1.025701	0.011861	16.667022	-13.830900	40.155488	-13.276099	20.550220	-10.843618	-5.497347	-57.067832	121.248908	-38.718802	-149.686123	2.127915	4.376763	24.152703	-10.589766	-36.072245	-6.805680	-25.846236	11.655971	55.619210	0.814152	7.493232	15.597517	15.222965	19.324502	-4.978961	
3.3600	-2.898870	3.029508	10.112312	-0.105304	1.025470	0.011821	16.535962	-13.895223	39.541290	-13.160980	19.926760	-10.591940	-5.780626	-57.331458	121.116585	-40.087124	-150.876104	2.651513	4.519242	23.901320	-10.483328	-35.664184	-7.008562	-26.055699	11.418722	55.735945	0.404291	7.495518	16.682574	15.237998	19.212517	-5.360850	
3.3700	-2.845850	2.942828	10.198513	-0.105717	1.025261	0.011783	16.364775	-14.002272	38.808193	-13.057475	19.217389	-10.265631	-6.081256	-57.618150	120.966308	-41.602885	-152.034881	3.138839	4.699067	23.641029	-10.375007	-35.240993	-7.231592	-26.303077	11.170129	55.878705	-0.057430	7.455648	17.916477	15.252834	19.097511	-5.744517	
3.3800	-2.797435	2.879642	10.293107	-0.106170	1.025072	0.011747	16.154922	-14.132589	37.972496	-12.953282	18.440802	-9.882253	-6.403188	-57.921501	120.792933	-43.244065	-153.147737	3.593663	4.888132	23.375438	-10.259239	-34.809522	-7.478365	-26.586215	10.915387	56.039025	-0.551595	7.419262	19.285820	15.259409	18.962045	-6.119698	
3.3900	-2.754100	2.831372	10.391884	-0.106661	1.024936	0.011705	15.921349	-14.296076	37.063671	-12.858564	17.607048	-9.448455	-6.748050	-58.257927	120.585066	-44.984088	-154.351707	4.064677	5.077612	23.093082	-10.141162	-34.350739	-7.742148	-26.898283	10.641916	56.221379	-1.081099	7.391032	20.763908	15.267852	18.795665	-6.503285	
3.4000	-2.706462	2.792796	10.479380	-0.107181	1.024808	0.011664	15.668273	-14.430072	36.124159	-12.732236	16.765165	-9.017854	-7.128599	-58.601969	120.354348	-46.783538	-155.524434	4.536883	5.217918	22.804545	-9.999971	-33.884824	-8.037264	-27.233078	10.366592	56.399634	-1.613101	7.441562	22.342653	15.250098	18.610114	-6.878295	
3.4100	-2.653792	2.761686	10.571608	-0.107735	1.024715	0.011622	15.406460	-14.545168	35.164891	-12.579710	15.905308	-8.590316	-7.560383	-58.967568	120.076569	-48.627967	-156.678428	5.013701	5.284052	22.508965	-9.850607	-33.409322	-8.356326	-27.602025	10.084071	56.581309	-2.167606	7.549822	24.019816	15.204861	18.424425	-7.240882	
3.4200	-2.596874	2.734610	10.665844	-0.108311	1.024665	0.011575	15.136426	-14.636323	34.194423	-12.399819	15.039183	-8.171533	-8.049782	-59.358427	119.756613	-50.501929	-157.817320	5.496451	5.268152	22.204342	-9.688153	-32.921539	-8.701415	-27.999941	9.793741	56.759476	-2.743126	7.722088	25.785614	15.126326	18.254448	-7.589246	
3.4300	-2.545779	2.708961	10.769497	-0.108904	1.024707	0.011516	14.861816	-14.745375	33.203609	-12.222519	14.145953	-7.733577	-8.606342	-59.796216	119.377866	-52.407585	-159.043678	5.997042	5.164175	21.882417	-9.526039	-32.406600	-9.061151	-28.425928	9.483842	56.954051	-3.371466	7.914563	27.635312	15.021015	18.127938	-7.927759	
3.4400	-2.493017	2.678365	10.876983	-0.109501	1.024800	0.011449	14.580035	-14.826617	32.211101	-12.017776	13.258651	-7.309940	-9.231619	-60.269571	118.981149	-54.325946	-160.292157	6.514752	4.975269	21.545227	-9.341147	-31.869826	-9.448692	-28.865372	9.162567	57.127689	-4.028345	8.166650	29.550282	14.876265	18.053844	-8.255751	
3.4500	-2.444889	2.643756	10.994214	-0.110102	1.024989	0.011371	14.295593	-14.924380	31.206056	-11.815900	12.350271	-6.871102	-9.932358	-60.802730	118.540158	-56.264087	-161.645211	7.061608	4.677800	21.189084	-9.150617	-31.303621	-9.851352	-29.322451	8.822216	57.303771	-4.744916	8.428798	31.538903	14.698945	18.047550	-8.570292	
3.4600	-2.392870	2.602062	11.113638	-0.110698	1.025226	0.011284	14.006084	-14.995144	30.202797	-11.587130	11.448034	-6.447072	-10.691289	-61.383212	118.099605	-58.207038	-163.018279	7.639501	4.304163	20.817680	-8.932353	-30.715762	-10.281622	-29.782635	8.471848	57.448172	-5.496030	8.713481	33.585740	14.486246	18.096904	-8.876864	
3.4700	-2.343652	2.554659	11.227027	-0.111297	1.025532	0.011197	13.723366	-15.071643	29.207704	-11.353048	10.531352	-6.022547	-11.511380	-62.017448	117.625737	-60.162000	-164.443951	8.270052	3.821797	20.431583	-8.702531	-30.105668	-10.723628	-30.242233	8.109325	57.594890	-6.313314	8.967674	35.702605	14.238276	18.212211	-9.171623	
3.4800	-2.281805	2.496255	11.339242	-0.111899	1.025840	0.011114	13.446612	-15.089129	28.243376	-11.068049	9.636049	-5.644068	-12.381152	-62.686656	117.164499	-62.101912	-165.767982	8.957286	3.269331	20.036014	-8.438921	-29.483076	-11.193583	-30.694424	7.744008	57.699033	-7.167535	9.211059	37.870433	13.949517	18.363886	-9.460710	
3.4900	-2.221536	2.432058	11.448665	-0.112502	1.026216	0.011036	13.181070	-15.125157	27.288883	-10.786162	8.717712	-5.258492	-13.308994	-63.411700	116.650226	-64.037831	-167.089891	9.731803	2.607958	19.623788	-8.174005	-28.832235	-11.664403	-31.140973	7.361895	57.820065	-8.112329	9.357687	40.104843	13.628673	18.549411	-9.738193	
3.5000	-2.154317	2.357233	11.556417	-0.113085	1.026609	0.010962	12.911568	-15.133352	26.345057	-10.480279	7.816224	-4.891100	-14.295914	-64.179600	116.120460	-65.938588	-168.309798	10.606871	1.865100	19.192954	-7.881690	-28.149783	-12.152177	-31.566594	6.966682	57.918461	-9.119596	9.426875	42.378970	13.268021	18.731343	-10.006886	
